HIERARCHY
ROOT Hips
{
	OFFSET 0.000000 0.000000 0.000000 
	CHANNELS 6 Xposition Yposition Zposition Xrotation Yrotation Zrotation
	JOINT Spine
	{
		OFFSET 0.000000 1.722820 2.584230 
		CHANNELS 3 Xrotation Yrotation Zrotation
		JOINT Spine1
		{
			OFFSET 0.000000 0.598330 3.393290 
			CHANNELS 3 Xrotation Yrotation Zrotation
			JOINT Spine2
			{
				OFFSET 0.000000 0.300310 3.432520 
				CHANNELS 3 Xrotation Yrotation Zrotation
				JOINT Spine3
				{
					OFFSET 0.000000 0.000000 3.445640 
					CHANNELS 3 Xrotation Yrotation Zrotation
					JOINT Neck
					{
						OFFSET 0.000000 -1.292100 9.044790 
						CHANNELS 3 Xrotation Yrotation Zrotation
						JOINT Head
						{
							OFFSET 0.000000 -0.822700 4.665770 
							CHANNELS 3 Xrotation Yrotation Zrotation
							End Site
							{
								OFFSET 0.000000 0.000010 5.577620 
							}
						}
					}
					JOINT RightShoulder
					{
						OFFSET -1.175120 -1.958530 6.345670 
						CHANNELS 3 Xrotation Yrotation Zrotation
						JOINT RightArm
						{
							OFFSET -5.836450 0.000000 0.000000 
							CHANNELS 3 Xrotation Yrotation Zrotation
							JOINT RightForeArm
							{
								OFFSET -10.886420 0.000000 0.000000 
								CHANNELS 3 Xrotation Yrotation Zrotation
								JOINT RightHand
								{
									OFFSET -10.194950 0.000000 0.000000 
									CHANNELS 3 Xrotation Yrotation Zrotation
									JOINT RightHandEnd
									{
										OFFSET -2.735920 0.000000 0.000000 
										CHANNELS 3 Xrotation Yrotation Zrotation
										End Site
										{
											OFFSET -2.735920 0.000000 0.000000 
										}
									}
									JOINT RightHandThumb1
									{
										OFFSET -1.094370 -1.823950 -0.729580 
										CHANNELS 3 Yrotation Xrotation Zrotation
										End Site
										{
											OFFSET -2.642700 -0.708110 0.000000 
										}
									}
								}
							}
						}
					}
					JOINT LeftShoulder
					{
						OFFSET 1.175120 -1.958530 6.345670 
						CHANNELS 3 Xrotation Yrotation Zrotation
						JOINT LeftArm
						{
							OFFSET 5.836450 0.000000 0.000000 
							CHANNELS 3 Xrotation Yrotation Zrotation
							JOINT LeftForeArm
							{
								OFFSET 10.886420 0.000000 0.000000 
								CHANNELS 3 Xrotation Yrotation Zrotation
								JOINT LeftHand
								{
									OFFSET 10.194950 0.000000 0.000000 
									CHANNELS 3 Xrotation Yrotation Zrotation
									JOINT LeftHandEnd
									{
										OFFSET 2.735920 0.000000 0.000000 
										CHANNELS 3 Xrotation Yrotation Zrotation
										End Site
										{
											OFFSET 2.735920 0.000000 0.000000 
										}
									}
									JOINT LeftHandThumb1
									{
										OFFSET 1.094370 -1.823950 -0.729580 
										CHANNELS 3 Yrotation Xrotation Zrotation
										End Site
										{
											OFFSET 2.642700 -0.708110 0.000000 
										}
									}
								}
							}
						}
					}
				}
			}
		}
	}
	JOINT RightUpLeg
	{
		OFFSET -3.486200 0.000000 -1.018440 
		CHANNELS 3 Xrotation Yrotation Zrotation
		JOINT RightLeg
		{
			OFFSET 0.000010 0.000000 -16.688210 
			CHANNELS 3 Xrotation Yrotation Zrotation
			JOINT RightFoot
			{
				OFFSET 0.000010 0.000000 -16.775360 
				CHANNELS 3 Xrotation Yrotation Zrotation
				JOINT RightToeBase
				{
					OFFSET 0.000000 -4.945160 -1.799890 
					CHANNELS 3 Xrotation Yrotation Zrotation
					End Site
					{
						OFFSET 0.000000 -2.820300 -0.000000 
					}
				}
			}
		}
	}
	JOINT LeftUpLeg
	{
		OFFSET 3.486200 0.000000 -1.018440 
		CHANNELS 3 Xrotation Yrotation Zrotation
		JOINT LeftLeg
		{
			OFFSET 0.000010 0.000000 -16.688210 
			CHANNELS 3 Xrotation Yrotation Zrotation
			JOINT LeftFoot
			{
				OFFSET 0.000010 0.000000 -16.775360 
				CHANNELS 3 Xrotation Yrotation Zrotation
				JOINT LeftToeBase
				{
					OFFSET 0.000000 -4.945160 -1.799890 
					CHANNELS 3 Xrotation Yrotation Zrotation
					End Site
					{
						OFFSET 0.000000 -2.820300 -0.000000 
					}
				}
			}
		}
	}
}
MOTION
Frames: 12
Frame Time: 0.008333
-5.038400 35.449100 -0.054000 -80.028603 4.626200 1.211300 8.688300 -2.574100 0.703900 5.496500 0.001300 0.064000 1.856400 -1.122100 -0.763200 -1.491100 -0.315900 0.209300 -4.448400 -2.887900 -1.620500 -22.427601 0.629000 0.646300 -7.268200 18.705999 2.488800 -23.369900 -11.612100 -7.121600 0.000000 0.000000 29.519400 23.848600 2.816600 -12.164400 0.000000 0.000000 -0.000000 0.000000 -0.000000 0.000000 -5.894300 -22.485001 -5.372300 -34.970798 7.702000 22.898500 -0.000000 -0.000000 -46.915699 -0.827800 -0.286700 12.998500 0.000000 -0.000000 -0.000000 0.000000 0.000000 0.000000 -34.644100 1.534600 -23.748899 19.812901 0.000000 0.000000 -0.734700 -8.618200 -5.989400 -1.091700 0.000000 -0.000000 -13.459900 -14.394100 5.379000 36.336899 0.000000 0.000000 -23.492500 11.773400 -5.192700 -7.797000 0.000000 -0.000000 
-4.959100 35.416698 -0.343600 -79.775497 4.593300 1.438600 8.719100 -2.466300 0.715500 5.526300 0.054100 0.066600 1.863300 -1.027500 -0.862200 -1.474000 -0.291200 0.195000 -4.429300 -2.925000 -1.749900 -22.659300 0.495500 0.479400 -7.260600 18.897400 2.274000 -23.743700 -11.446800 -7.463800 0.000000 0.000000 29.209900 23.157101 3.399000 -12.269400 -0.000000 -0.000000 -0.000000 -0.000000 0.000000 -0.000000 -6.058200 -22.879801 -5.561600 -35.198898 7.379700 22.998301 -0.000000 -0.000000 -46.697601 -0.777700 -0.120800 13.110000 0.000000 0.000000 -0.000000 0.000000 0.000000 -0.000000 -35.191200 1.868200 -23.938101 19.564100 0.000000 0.000000 -0.781400 -9.670400 -5.908300 -0.699600 0.000000 -0.000000 -14.125700 -14.034500 5.237900 36.076900 0.000000 0.000000 -24.204500 11.345000 -4.692300 -7.255900 0.000000 -0.000000 
-4.882700 35.388599 -0.633500 -79.507599 4.546700 1.637800 8.747700 -2.346400 0.718900 5.554000 0.104500 0.070400 1.865800 -0.936300 -0.907500 -1.459300 -0.257400 0.190400 -4.427200 -2.972300 -1.863200 -22.857800 0.389000 0.302100 -7.294700 19.111900 2.051700 -24.081200 -11.323600 -7.846300 0.000000 0.000000 28.934799 22.921900 3.689200 -12.335300 -0.000000 0.000000 0.000000 0.000000 -0.000000 0.000000 -6.186400 -23.222900 -5.763300 -35.450199 7.034000 23.049500 -0.000000 -0.000000 -46.455101 -0.519100 0.037200 13.217700 -0.000000 -0.000000 -0.000000 -0.000000 -0.000000 0.000000 -35.706501 2.200400 -24.202000 19.243200 0.000000 0.000000 -0.810200 -10.761300 -5.789000 -0.451900 0.000000 -0.000000 -14.817800 -13.685000 5.147200 35.860802 0.000000 0.000000 -24.798300 10.917100 -4.307900 -6.682800 0.000000 -0.000000 
-4.811900 35.363899 -0.921600 -79.231903 4.513400 1.812900 8.774600 -2.232600 0.715900 5.580200 0.148800 0.075900 1.860900 -0.854200 -0.898400 -1.443800 -0.210600 0.197800 -4.435200 -3.027500 -1.964800 -23.030899 0.298800 0.107000 -7.304500 19.328600 1.791800 -24.428900 -11.218900 -8.251400 0.000000 0.000000 28.686399 23.172199 3.681300 -12.360000 0.000000 -0.000000 -0.000000 -0.000000 0.000000 -0.000000 -6.307000 -23.513300 -5.993300 -35.693001 6.661200 23.050800 -0.000000 -0.000000 -46.187199 -0.111100 0.196100 13.313600 -0.000000 -0.000000 0.000000 0.000000 -0.000000 0.000000 -36.177601 2.503500 -24.554300 18.848200 0.000000 0.000000 -0.824000 -11.881900 -5.648800 -0.428000 0.000000 -0.000000 -15.512900 -13.394700 5.122900 35.683601 0.000000 0.000000 -25.280100 10.505900 -4.110000 -6.125100 0.000000 -0.000000 
-4.750000 35.342602 -1.205200 -78.964104 4.542000 1.962600 8.794000 -2.160700 0.714200 5.609400 0.188600 0.083000 1.862200 -0.784300 -0.849700 -1.424700 -0.159900 0.214400 -4.439400 -3.067100 -2.059200 -23.201099 0.185800 -0.125800 -7.290600 19.526199 1.514500 -24.789600 -11.106700 -8.654100 0.000000 0.000000 28.431299 23.397400 3.681200 -12.358200 0.000000 0.000000 -0.000000 0.000000 0.000000 0.000000 -6.419000 -23.778601 -6.233100 -35.932400 6.282900 23.026899 -0.000000 -0.000000 -45.905998 0.337500 0.375300 13.403600 -0.000000 0.000000 0.000000 0.000000 -0.000000 0.000000 -36.567001 2.709800 -24.958200 18.335899 0.000000 0.000000 -0.823500 -13.033200 -5.567300 -0.551200 0.000000 -0.000000 -16.221001 -13.222400 5.129200 35.582901 0.000000 0.000000 -25.662600 10.132400 -4.082700 -5.689200 0.000000 -0.000000 
-4.699700 35.329498 -1.480200 -78.748497 4.681800 2.100200 8.799800 -2.142600 0.708700 5.666200 0.208300 0.089000 1.910300 -0.751900 -0.777800 -1.405300 -0.115900 0.234700 -4.441400 -3.097100 -2.140300 -23.399599 0.054100 -0.363500 -7.290700 19.660500 1.293500 -25.140400 -10.916000 -9.063900 0.000000 0.000000 28.167101 23.594200 3.689700 -12.316900 0.000000 -0.000000 0.000000 0.000000 0.000000 0.000000 -6.530800 -24.011999 -6.456000 -36.167400 5.909400 22.997400 -0.000000 -0.000000 -45.631699 0.824700 0.506400 13.491700 0.000000 0.000000 0.000000 0.000000 -0.000000 0.000000 -36.801300 2.765500 -25.342501 17.672701 0.000000 0.000000 -0.943100 -14.517400 -5.668300 -0.492800 0.000000 -0.000000 -16.901899 -13.216800 5.156500 35.539700 0.000000 0.000000 -25.941401 9.804200 -4.159300 -5.392500 0.000000 -0.000000 
-4.653400 35.319099 -1.748400 -78.549103 4.805300 2.216700 8.794200 -2.104800 0.698500 5.725600 0.228900 0.097100 1.969700 -0.712400 -0.693900 -1.381800 -0.082400 0.253400 -4.427200 -3.118700 -2.210700 -23.597000 -0.084800 -0.600400 -7.305400 19.750099 1.150400 -25.458000 -10.661100 -9.516400 0.000000 0.000000 27.905001 23.677000 3.681100 -12.220300 -0.000000 0.000000 0.000000 0.000000 -0.000000 -0.000000 -6.618800 -24.241199 -6.659600 -36.398499 5.565200 22.957199 -0.000000 -0.000000 -45.342999 1.336400 0.545300 13.559700 0.000000 0.000000 -0.000000 0.000000 0.000000 0.000000 -36.965900 2.791000 -25.734301 16.916700 0.000000 0.000000 -0.902800 -15.609000 -5.860100 -0.791300 0.000000 -0.000000 -17.571199 -13.216500 5.214700 35.548000 0.000000 0.000000 -26.146000 9.515400 -4.225400 -5.121000 0.000000 -0.000000 
-4.608600 35.312302 -2.012100 -78.359802 4.883600 2.303200 8.789500 -2.028100 0.683300 5.788000 0.258800 0.108800 2.023800 -0.667400 -0.588100 -1.359500 -0.070800 0.278500 -4.389600 -3.100200 -2.277800 -23.797100 -0.230000 -0.838500 -7.347800 19.812799 1.101300 -25.714199 -10.332400 -10.040100 0.000000 0.000000 27.669399 23.618299 3.657800 -12.103900 0.000000 -0.000000 0.000000 -0.000000 0.000000 -0.000000 -6.661900 -24.430401 -6.859600 -36.642200 5.219900 22.900600 -0.000000 -0.000000 -45.040298 1.847600 0.518500 13.616700 0.000000 -0.000000 0.000000 -0.000000 -0.000000 -0.000000 -37.108799 2.833800 -26.065701 16.150499 0.000000 0.000000 -0.922600 -16.696899 -6.220600 -1.032900 0.000000 -0.000000 -18.230200 -13.182500 5.289600 35.592999 0.000000 0.000000 -26.283501 9.279000 -4.273600 -4.856000 0.000000 -0.000000 
-4.564800 35.307899 -2.270400 -78.184998 4.909100 2.370200 8.796700 -1.909900 0.658900 5.848400 0.290300 0.120900 2.062800 -0.606700 -0.482000 -1.341600 -0.061400 0.297300 -4.312800 -3.092900 -2.325600 -24.002300 -0.353800 -1.051000 -7.401100 19.826900 1.149800 -25.919600 -9.947900 -10.602200 0.000000 0.000000 27.448099 23.495501 3.650600 -12.010200 0.000000 -0.000000 0.000000 -0.000000 -0.000000 -0.000000 -6.766200 -24.684500 -7.052500 -36.837601 4.987600 22.879400 -0.000000 -0.000000 -44.729801 2.389700 0.427000 13.654100 0.000000 -0.000000 0.000000 0.000000 -0.000000 0.000000 -37.244999 2.917800 -26.369801 15.420200 0.000000 0.000000 -1.014900 -17.716200 -6.724400 -1.195300 0.000000 -0.000000 -18.870701 -13.099100 5.363300 35.653900 0.000000 0.000000 -26.374599 9.085500 -4.322600 -4.592300 0.000000 -0.000000 
-4.523100 35.304699 -2.522600 -78.025398 4.906600 2.425700 8.817500 -1.789300 0.624200 5.902300 0.308400 0.126300 2.084200 -0.497400 -0.413000 -1.328200 -0.015800 0.275400 -4.192000 -3.186400 -2.301500 -24.210300 -0.421000 -1.201600 -7.459100 19.754700 1.332800 -26.107300 -9.543800 -11.171200 0.000000 0.000000 27.220200 23.342800 3.674300 -11.933800 -0.000000 0.000000 -0.000000 -0.000000 -0.000000 0.000000 -6.910700 -25.084101 -7.153100 -36.984299 4.901000 22.901400 -0.000000 -0.000000 -44.413700 2.951000 0.292100 13.674100 0.000000 0.000000 0.000000 0.000000 0.000000 0.000000 -37.389301 3.036200 -26.676001 14.783500 0.000000 0.000000 -1.171000 -18.618099 -7.313600 -1.258900 0.000000 -0.000000 -19.492599 -12.990900 5.420900 35.726799 0.000000 0.000000 -26.445801 8.936500 -4.364800 -4.306300 0.000000 -0.000000 
-4.483500 35.302200 -2.768800 -77.887802 4.885000 2.473200 8.849300 -1.669800 0.584400 5.958000 0.317900 0.126600 2.101800 -0.358300 -0.376400 -1.310200 0.050800 0.222300 -4.086800 -3.339300 -2.225300 -24.378201 -0.452300 -1.295000 -7.546600 19.663000 1.603800 -26.277500 -9.172600 -11.743500 0.000000 0.000000 26.991600 23.183701 3.708900 -11.881200 0.000000 -0.000000 0.000000 -0.000000 -0.000000 -0.000000 -6.987200 -25.548599 -7.129400 -37.171700 4.869100 22.914200 -0.000000 -0.000000 -44.090801 3.475300 0.163600 13.695200 -0.000000 0.000000 0.000000 0.000000 -0.000000 0.000000 -37.556900 3.197600 -26.989100 14.307400 0.000000 0.000000 -1.376200 -19.363501 -7.933800 -1.213300 0.000000 -0.000000 -20.095501 -12.863600 5.446000 35.819901 0.000000 0.000000 -26.501900 8.825300 -4.386700 -4.002400 0.000000 -0.000000 
-4.447100 35.301998 -3.009900 -77.763199 4.883300 2.506300 8.902000 -1.572400 0.555200 6.017600 0.330800 0.126300 2.094100 -0.231200 -0.345200 -1.302600 0.110500 0.174900 -3.975100 -3.480600 -2.151600 -24.510300 -0.487600 -1.349000 -7.623600 19.585899 1.869700 -26.441900 -8.828600 -12.282900 0.000000 0.000000 26.760599 23.042900 3.724700 -11.867400 -0.000000 -0.000000 -0.000000 0.000000 -0.000000 -0.000000 -7.024000 -25.992701 -7.083000 -37.381500 4.840400 22.930201 -0.000000 -0.000000 -43.786301 3.938500 0.065600 13.740900 -0.000000 -0.000000 -0.000000 -0.000000 -0.000000 0.000000 -37.763802 3.363000 -27.301399 14.015300 0.000000 0.000000 -1.620500 -19.804199 -8.543900 -0.945100 0.000000 -0.000000 -20.698700 -12.755700 5.418400 35.942299 0.000000 0.000000 -26.544001 8.747400 -4.374600 -3.685600 0.000000 -0.000000 
